<?xml version="1.0" encoding="utf-8"?><svg viewBox="0 0 235 70" xmlns="http://www.w3.org/2000/svg" xmlns:xlink="http://www.w3.org/1999/xlink"><style>:root>svg{display:none}:root>svg:target{display:block}</style><svg viewBox="0 0 125 32" id="img-barneys" xmlns="http://www.w3.org/2000/svg"><path d="M21.332 6.553v.075l.038.038h2.992l.038-.038v-.075l-1.589-4.04zm3.715 5.135v-.038l.342-.038.288-.11.264-.151.151-.192.038-.226-.075-.342-1.4-3.314v-.089l-.075-.075h-3.471v.038l-.038.075-1.328 3.478-.075.305.075.226.192.192.342.151.493.079v.038h-2.92v-.038l.418-.079.301-.113.229-.188.188-.305L23.152-.001h.075l4.547 10.856.229.342.264.229.342.154.418.075v.038zm51.983 0v-.038l.188-.038.267-.038.264-.079.229-.151.151-.229.075-.342.038-1.065V8.496l.038-1.26V4.418l-.038-1.561-.038-1.369-.075-.342-.151-.229-.229-.151-.264-.082-.267-.041-.188-.034V.571h7.655l.075.647.038.763.038.722h-.075l-.113-.38-.154-.383-.188-.342-.229-.267-.342-.113-.835-.075h-1.931l-1.027.075h-.075l-.113.038-.116.116v4.105l.038.116.041.075.075.038h3.218l.342-.038.267-.192.188-.229.075-.342.075-.38h.038v3.201h-.038l-.075-.342-.151-.613-.195-.267-.226-.151-.305-.075h-3.218l-.075.038-.079.151v4.451l.116.116.113.038h.075l.719.038.757.038h1.746l.527-.038.455-.038.305-.116.226-.188.151-.267.154-.305.113-.342.075-.305h.082v.531l-.075 1.143-.038.459zm20.839 0v-.038l.188-.038.267-.038.264-.079.229-.151.151-.229.075-.342.038-1.332V6.439l-.685-1.298-.418-.835-.455-.839-.414-.801-.455-.685-.452-.613-.531-.459-.568-.267-.613-.11V.453l.301-.075.342-.038h.264l.76.075.644.154.493.305.452.418.38.496.38.572.38.685 1.369 2.592.397-.572.418-.685.455-.763.452-.722.38-.726.342-.609.113-.267-.038-.226-.154-.154-.257-.154-.685-.151V.57h2.955v.038l-.438.075-.377.229-.305.38-2.766 4.451-.151.305-.075.267-.038.305v1.493l.038 1.411.075 1.256.075.342.151.229.229.151.264.075.455.079v.038zM3.146.952l-.229.113-.075.154-.038.229v3.766l.075.192.229.113.414.041h.609l.568-.041.49-.151.418-.267.38-.342.301-.459.154-.572.062-.647-.075-.647-.192-.572-.342-.418-.455-.305-.606-.154L4.112.91h-.589zm.076 5.104l-.267.075-.113.154-.038.192v3.999l.038.342.188.267.305.151.493.079.644.038.644-.038.606-.192.568-.267.455-.38.342-.496.226-.647.075-.722-.075-.685-.188-.572-.305-.455-.414-.342-.493-.267-.568-.154-.551-.079-.647-.038h-.544zm-.113 5.714l-.76-.038H1.63l-.685-.038H.113v-.038l.38-.113.301-.116.267-.151.151-.267.075-.342.038-1.486.044-1.561V4.419l-.034-1.565-.041-1.369-.075-.342-.192-.229L.801.76.568.685.304.647.075.609V.571L.948.533h.907l.883-.038.794-.038h.647l.568.038.606.075.558.113.531.192.452.267.418.342.305.418.188.534.068.609-.075.609-.188.534-.305.459-.342.38-.455.342-.455.267.493.113.531.229.531.305.452.418.39.486.267.609.075.685-.075.65-.192.657-.308.534-.449.493-.606.38-.757.305-.911.192-1.061.075zm114.275 0l-.983-.151-.911-.267-.038-.038-.075-.038-.038-.079V9.064h.034l.267.801.342.647.418.459.531.305.644.188.798.038.568-.075.531-.192.377-.342.318-.418.188-.609.075-.685-.075-.572-.188-.459-.342-.418-.418-.342-.452-.267-.531-.305-.531-.267-.568-.305-.531-.305-.455-.342-.418-.421-.342-.531-.205-.572-.075-.726.075-.76.267-.647.418-.575.531-.459.685-.342.757-.188.832-.079 1.099.116.986.226.151.041.154.075.038.038V.87l-.113 2.02h-.079l-.188-.685-.226-.568-.342-.421-.455-.267-.568-.188-.719-.041-.418.041-.411.113-.377.192-.342.264-.277.38-.151.455-.075.572.075.609.192.496.264.455.38.342.452.305.493.264.493.229.531.229.493.267.493.305.455.342.377.418.267.496.188.572.075.722-.113.763-.267.647-.414.572-.531.455-.644.342-.722.192-.757.075zm-51.039.267L58.389 1.766v5.32l.038 1.256v1.181l.038 1.102.113.342.229.267.342.192.418.113.531.116v.038h-3.68v-.038l.418-.116.342-.113.301-.192.154-.267.075-.342.038-1.407.038-1.565V4.531l-.038-.839v-.876l-.038-.763v-.606l-.075-.421-.192-.305-.267-.188-.267-.154-.301-.075h-.267V.229l1.027-.116.609.038.527.192.493.267.455.38.462.534.531.609 5.19 6.59V3.314l-.075-1.678-.075-.418-.229-.305-.414-.192-.568-.113V.57h3.256v.038l-.425.113-.305.116-.264.188-.154.267-.075.342-.034 1.102-.038 1.256v2.667l.038 1.369.038 1.407.075 1.369.038 1.219zM41.083.989l-.226.075-.116.154-.038.267v4.416l.038.192.154.113.264.079h.418l.531-.038.531-.116.493-.188.452-.305.38-.383.305-.455.188-.534.075-.647-.075-.726-.151-.647-.305-.493-.38-.342-.483-.267-.568-.192-.606-.038h-.538zM46.465 12l-.589-.154-.527-.305-.5-.38-.493-.455-.455-.534-2.616-3.163-.099-.161-.113-.075-.075-.079-.075-.038h-.113l-.075.154v3.821l.075.342.151.267.264.188.342.116.38.113v.038h-3.865v-.038l.342-.113.264-.116.267-.151.151-.267.075-.342.038-1.486.038-1.561V3.619l-.038-1.102-.038-1.027-.075-.342-.151-.229-.229-.151-.264-.082-.459-.075V.573l.719-.038h.835l.907-.038.798-.038h.644l.719.038.685.075.606.151.572.229.49.305.38.38.301.496.188.647.079.726-.079.685-.226.603-.342.496-.428.425-.568.38-.647.267-.685.192-.038.038h-.038v.038l.038.038.038.079 2.01 2.551.455.609.527.572.531.534.531.455.531.267.493.116v.075l-.267.075-.342.038-.305.038zM19.134 31.428v-.075l.455-.079.264-.075.229-.151.151-.236.075-.342.038-1.027.038-1.219.038-1.294v-2.434l-.038-1.181-.038-1.106-.038-.983-.075-.342-.151-.229-.226-.157-.264-.079-.455-.075v-.075h7.689l.038.647.038.801.038.722h-.075l-.075-.305-.116-.342-.151-.305-.161-.26-.229-.192-.301-.113-.839-.038h-1.88l-1.027.038-.226.075-.038.075-.038.113v4.04l.075.154.075.038h3.222l.342-.038.267-.192.151-.229.113-.342.038-.38h.075v3.198h-.075l-.038-.342-.075-.305-.113-.305-.164-.233-.229-.154-.288-.075h-3.222l-.075.038-.038.038-.038.075v4.451l.113.113.113.038h.075l.722.038.757.041h1.369l.716-.038.644-.038.264-.075.229-.188.188-.267.226-.685.116-.305h.038v.726l-.038.76-.079.685zm41.148 0v-.075l.455-.079.264-.075.229-.151.151-.229.075-.342.038-1.335.038-1.448v-1.523l-.685-1.332-.418-.839-.452-.839-.407-.76-.455-.726-.493-.568-.493-.459-.568-.305-.644-.113v-.075l.493-.079.455-.038.757.075.606.154.531.305.455.418.377.496.342.609.38.685 1.369 2.554.38-.572.418-.685.455-.722.428-.76.418-.726.342-.609.113-.264-.075-.229-.113-.157-.264-.113-.305-.075-.342-.079v-.075h2.92v.075l-.418.079-.38.188-.301.383-2.766 4.495-.154.305-.113.267v1.749l.038 1.41.038 1.256.075.342.154.229.226.154.264.075.455.075v.075zm19.894-10.887l-.76.267-.644.459-.568.572-.455.722-.342.839-.188.989-.075 1.068.038.835.113.839.229.801.301.76.38.685.493.613.531.479.685.383.719.226.849.075.832-.079.757-.226.647-.342.568-.459.455-.572.342-.647.267-.801.151-.835.038-.914-.038-.88-.151-.873-.229-.839-.322-.75-.418-.685-.503-.616-.606-.496-.685-.38-.746-.219-.832-.075zm.076 11.011l-.986-.267-.866-.428-.794-.572-.685-.685-.531-.801-.418-.876-.264-.989-.075-1.068.075-1.065.264-.993.373-.914.531-.835.685-.685.794-.572.911-.418 1.027-.305 1.099-.075 1.027.075.945.267.856.452.798.534.685.726.572.798.418.914.264.993.075 1.065-.075 1.027-.226.955-.418.876-.493.835-.685.685-.791.606-.907.418-1.027.267-1.137.113zm-35.314.154l-.644-2.174-.685-2.284-.685-2.212-.685-2.133-.719 2.174-.685 2.246-.647 2.246-.644 2.136h-.038l-.38-1.143-.377-1.181-.407-1.229-.418-1.256-.832-2.362-.418-1.068-.342-.952-.342-.839-.267-.685-.151-.305-.229-.192-.226-.075-.455-.075v-.075h3.564v.075l-.229.038-.264.038-.229.113-.151.154-.075.267.075.342.455 1.41.534 1.486 1.061 3.047.49 1.448 1.328-4.307 1.369-4.303h.038l1.291 4.341.719 2.174.757 2.095.644-1.869.685-1.904.644-1.866.561-1.821.038-.305-.038-.192-.154-.154-.188-.113-.264-.038-.455-.075v-.082h2.955v.075l-.342.038-.267.113-.226.154-.229.305-.188.455-.229.609-.301.801-.342.914-.377 1.068-.38 1.102-.835 2.362-1.099 3.43zm-34.921.037L2.054 21.445v5.372l.031 1.256v1.178l.038 1.068.075.38.226.267.342.192.455.113.531.075v.079H.075v-.079l.38-.113.342-.113.301-.154.188-.267.082-.377.038-1.41.034-1.523v-3.122l-.038-.876v-.839l-.034-.76-.038-.609-.079-.421-.188-.305-.226-.188-.305-.154-.264-.075h-.27v-.116l1.061-.065.606.038.493.192.455.267.466.37.442.503.531.647 5.19 6.542v-5.406l-.038-.801v-.839l-.079-.418-.264-.305-.38-.192-.609-.113v-.075h3.259v.075l-.418.113-.301.116-.267.188-.151.267-.075.342v1.068l-.038 1.294v2.667l.044 1.332.038 1.41.038 1.369.075 1.219zm88.534-11.058l-.226.113-.075.154-.038.267v4.379l.038.229.151.113.264.079h.418l.531-.038.493-.116.531-.229.455-.264.377-.383.305-.455.188-.572.062-.647-.062-.719-.188-.647-.264-.496-.418-.342-.438-.274-.568-.188-.644-.038h-.531zm5.419 11.048l-.579-.192-.531-.305-.496-.38-.455-.459-.493-.534-2.598-3.16-.154-.113-.075-.116-.075-.075-.075-.038h-.113l-.038.075-.038.038-.038.116v3.732l.075.38.151.267.305.192.342.113.38.075v.079h-3.869v-.079l.342-.075.264-.12.267-.154.151-.267.075-.342.038-1.486.038-1.599v-2.811l-.038-1.181v-1.106l-.038-.983-.075-.342-.151-.229-.229-.154-.264-.075-.267-.038-.188-.038v-.082l.685-.041h.798l.87-.038h1.41l.757.038.719.079.685.151.568.229.493.305.377.418.305.496.188.609.075.763-.075.647-.188.572-.342.493-.418.421-.568.342-.606.267-.719.229-.075.038h-.038v.113l.038.075 2.006 2.554.418.493.911.993.455.418.452.342.455.229.38.075v.038l-.264.116-.609.075zm20.042.267l-.832-.079-.757-.188-.647-.305-.606-.421-.568-.493-.531-.572-3.297-3.656-.075-.079h-.075l-.038.079v1.712l.038.914.038.839.038.726.075.342.154.226.226.154.267.075.452.075v.079h-3.903v-.079l.192-.038.264-.038.267-.075.226-.154.151-.226.075-.342.041-1.027v-1.222l.038-1.294v-2.438l-.038-1.181v-1.106l-.041-.983-.075-.342-.151-.229-.226-.154-.267-.075-.264-.038-.192-.038v-.082h3.903v.075l-.452.075-.267.075-.226.154-.154.229-.075.342-.038.989-.038 1.143-.038 1.219v1.143l1.404-1.335 1.369-1.448 1.25-1.407.229-.267.151-.267.038-.192-.075-.226-.188-.116-.305-.075-.38-.038v-.075h2.92v.075l-.418.113-.38.267-.38.305-.377.38-3.646 4.002 1.63 1.904.342.383.418.455.527.572.568.609.596.609.644.572.644.496.644.418.606.267.531.113v.075l-.301.079-.342.038z"/></svg><svg viewBox="0 0 59 32" id="img-billabong" xmlns="http://www.w3.org/2000/svg"><path d="M35.312 0h23.624v6.871c-.875.138-1.62.303-2.348.508l.142-.034c-1.216.474-4.899 1.106-4.899-.996s3.14-1.773 3.14-1.773-.316-.522-1.629-.79-3.525-.577-6.734 1.897-5.38 2.316-5.38 2.316a1.601 1.601 0 01-1.793-1.688v.005c0-1.787 3.161-1.58 3.161-1.58a6.218 6.218 0 00-2.98-1.05l-.023-.002a9.442 9.442 0 00-4.689 1.493l.038-.023c-.997.523-2.154.957-3.368 1.244l-.102.02V0zm23.624 13.887v4.899H31.485v-5.263a15.63 15.63 0 003.555-1.36l-.085.041a9.385 9.385 0 014.609-1.47l.022-.001a6.257 6.257 0 013.038 1.065l-.022-.014s-3.161-.206-3.161 1.635l-.001.054a1.587 1.587 0 001.795 1.573l-.008.001s2.103.158 5.367-2.316 5.497-2.158 6.734-1.896 1.642.79 1.642.79-3.106-.364-3.106 1.793 3.683 1.415 4.899.996a11.93 11.93 0 012.136-.52l.07-.009zM25.974 25.816h.227a2.05 2.05 0 001.218-.294l-.009.005a1.001 1.001 0 00.398-.876v.003a.958.958 0 00-.375-.837l-.002-.002a2.034 2.034 0 00-1.182-.267h.007-.282v2.268zm30.921 4.329h1.855V32h-1.855v-1.855zM23.15 22.208h-.687l-8.081 8.775h-.639v-8.775h-.845v8.775h-3.58v-8.775H8.5v9.62h9.888v-.845h-2.9l1.539-1.629h5.284v2.474h.873v-9.62zm-5.339 6.411l4.618-5.332-.103 5.332zM7.778 22.208h-.797v9.62h.797v-9.62zm-7.778 0v9.62h2.508a12.604 12.604 0 002.121-.074l-.059.006a2.472 2.472 0 001.979-2.669l.001.01a2.275 2.275 0 00-1.723-2.423l-.016-.003a.236.236 0 01-.098 0h.002a.146.146 0 00.077 0h-.001a1.894 1.894 0 001.436-2.035l.001.008v-.04a2.49 2.49 0 00-.688-1.721l.001.001a2.736 2.736 0 00-2.073-.638l.012-.001zm.804.818h2.515a2.32 2.32 0 011.616.377l-.008-.005c.306.279.496.679.496 1.123l-.002.076v-.004l.001.068c0 .46-.184.878-.483 1.183a2.406 2.406 0 01-1.779.439l.013.002H.802v-3.257zm0 4.047H3.14c.044-.002.096-.002.148-.002.394 0 .776.051 1.14.147l-.031-.007a1.872 1.872 0 011.332 1.937v-.006a1.677 1.677 0 01-1.669 1.844l-.088-.002h.004H.801v-3.91zm56.785-.598v.363c0 .416-.043.823-.124 1.215l.007-.039a4.822 4.822 0 01-.37 1.073l.013-.029a5.357 5.357 0 01-1.91 2.159l-.021.013a5.071 5.071 0 01-2.731.788 5.115 5.115 0 01-3.847-1.738l-.005-.006a4.905 4.905 0 01-.965-1.581l-.011-.034a4.71 4.71 0 01-.163-.511l-.009-.039v3.69h-1.8l-4.171-6.59v6.59h-1.924v-3.498c-.041.151-.096.295-.151.44a4.904 4.904 0 01-1.079 1.67l.001-.001a4.965 4.965 0 01-1.652 1.183l-.032.012a4.931 4.931 0 01-1.992.412h-.016.001-.034a5.318 5.318 0 01-2.062-.412l.035.013a4.859 4.859 0 01-1.652-1.204l-.004-.005a5.013 5.013 0 01-.743-.979l-.013-.024a3.603 3.603 0 01-.208.711l.009-.024a2.694 2.694 0 01-.685 1.015l-.002.002a2.796 2.796 0 01-1.011.552l-.02.005a5.945 5.945 0 01-1.624.165h.01-2.542V21.786h2.242c.334 0 .662.02.985.059l-.039-.004c.255.031.487.094.705.185l-.017-.006c.519.199.949.534 1.259.961l.006.008c.276.395.441.885.441 1.413l-.001.067v-.003l.001.068c0 .408-.097.794-.269 1.135l.007-.015a1.755 1.755 0 01-.76.751l-.01.005c.335.094.624.261.86.482l-.001-.001v-.147c0-.536.08-1.053.23-1.539l-.01.037a5.02 5.02 0 01.657-1.392l-.011.018a5.149 5.149 0 014.257-2.254h.054-.003c.694 0 1.356.142 1.957.397l-.033-.012a5.317 5.317 0 012.783 2.762l.013.034a6.6 6.6 0 01.172.481V21.84h1.855l4.123 6.397v-6.452h1.917v3.635c.074-.271.156-.5.253-.72l-.013.033a5.428 5.428 0 011.187-1.71l.001-.001a4.954 4.954 0 011.616-1.081l.033-.012a5.475 5.475 0 011.963-.358h.06-.003l.112-.001c.996 0 1.922.295 2.697.803l-.019-.012a5.151 5.151 0 011.802 2.274l.012.034h-2.371a2.827 2.827 0 00-1.007-.803l-.017-.007a3.08 3.08 0 00-1.284-.275h-.03.002-.052c-.839 0-1.595.357-2.125.926l-.002.002c-.556.59-.897 1.387-.897 2.264s.342 1.674.899 2.266l-.002-.002a2.99 2.99 0 002.168.928l.061-.001h-.003a2.982 2.982 0 002.741-1.815l.007-.02h-3.91v-1.663zm-26.042.234v.035c0 .42.078.821.221 1.19l-.008-.023c.152.393.364.73.628 1.019l-.002-.003a3.36 3.36 0 001.031.761l.02.009c.352.171.765.272 1.202.275h.001l.061.001c.848 0 1.611-.362 2.143-.94l.002-.002a3.198 3.198 0 00.893-2.328v-.047c0-.836-.345-1.591-.9-2.132l-.001-.001a2.908 2.908 0 00-2.113-.907h-.04.002l-.062-.001c-.846 0-1.612.344-2.164.901a2.953 2.953 0 00-.914 2.14v.055-.003zm-5.573 3.333h.591a2.277 2.277 0 001.323-.308l-.011.006a1.056 1.056 0 00.419-.932v.004a1.224 1.224 0 00-.438-1.029l-.002-.002a2.045 2.045 0 00-1.298-.35h.006-.591v2.611z"/></svg><svg viewBox="0 0 198 32" id="img-calvin" xmlns="http://www.w3.org/2000/svg"><path d="M15.973 29.221c-6.947 0-12.876-6.3-12.876-13.173S8.909 2.779 15.91 2.779c4.614 0 7.934 2.227 10.607 5.728h3.394a15.2 15.2 0 00-3.694-4.821l-.019-.016A16.472 16.472 0 0015.983 0h-.009C7.314.23.381 7.305.381 16s6.933 15.77 15.572 16h.021a16.068 16.068 0 009.906-3.546l-.032.024a19.89 19.89 0 004.192-5.05l.051-.094h-3.394c-2.683 3.5-6.109 5.876-10.723 5.876zm35.225-16.748c-1.95-2.709-5.084-4.46-8.63-4.487h-.004c-6.467 0-11.71 5.243-11.71 11.71s5.243 11.71 11.71 11.71l.154.001c3.501 0 6.594-1.745 8.457-4.412l.022-.033v3.924h2.811V8.538h-2.811v3.935zm-8.772 16.356c-4.769-.335-8.51-4.286-8.51-9.111s3.741-8.776 8.481-9.109l.029-.002a9.143 9.143 0 01.022 18.263l-.022.001zm14.977 2.057h3.002V.647h-3.002v30.239zm14.34-3.553L64.149 8.538h-2.97l9.1 22.348h3.023l9.079-22.348h-2.927l-7.711 18.795zm11.879 3.553h3.002V8.538h-3.002v22.348zm0-25.233h3.002V.647h-3.002v5.006zm15.931 2.334c-2.832 0-4.837 1.485-6.703 3.479V8.539h-2.779v22.348h2.959V17.268a6.693 6.693 0 016.57-6.661h.006c4.54 0 6.82 3.946 6.82 8.019V30.93h2.821V18.584c0-5.802-3.405-10.607-9.652-10.607zm37.505-7.34l-13.64 17.342V.647h-2.949v30.239h2.949V22.57l3.871-4.805 9.843 13.12h3.744l-11.71-15.507L140.876.645h-3.818zm4.911 30.239h2.927V.647h-2.927v30.239zm27.163-16.726c-2.042-3.708-5.925-6.178-10.384-6.178-6.498 0-11.77 5.245-11.815 11.732v.004c.119 6.462 5.38 11.656 11.857 11.667h.001a12.05 12.05 0 008.268-3.325l-.005.005a13.191 13.191 0 002.823-4.428l.03-.09h-3.182c-1.394 3.11-4.463 5.237-8.028 5.237a8.773 8.773 0 01-8.739-8.005l-.002-.033h20.609a13.073 13.073 0 00-1.498-6.679l.034.072zm-19.092 4.02c.891-4.243 4.19-7.616 8.708-7.616.061-.002.133-.002.205-.002a8.7 8.7 0 018.626 7.574l.005.043h-17.501zm22.741 12.706h2.959V8.538h-2.959v22.348zm0-25.127h2.959V.647h-2.959v5.112zm15.931 2.228c-2.874 0-4.89 1.485-6.778 3.479V8.539h-2.821v22.348h2.97V17.268a6.758 6.758 0 016.712-6.661h.002c4.518 0 6.905 3.946 6.905 8.019V30.93h2.779V18.584c0-5.802-3.458-10.607-9.726-10.607z"/></svg><svg viewBox="0 0 52 32" id="img-converse" xmlns="http://www.w3.org/2000/svg"><path d="M51.152 26.86h.162c.084 0 .174.016.174.121s-.101.131-.205.131h-.127zm-.123.691h.123v-.341h.129l.205.341h.131l-.226-.351a.205.205 0 00.205-.205c0-.154-.088-.228-.277-.228h-.306zm-.296-.4a.558.558 0 11.558.582h-.003a.556.556 0 01-.556-.556l.001-.028v.001zm-.123 0v.002a.681.681 0 10.692-.681h-.015a.677.677 0 00-.677.677v.002zm-10.443-1.006a1.2 1.2 0 00-1.198 1.198v1.145a1.198 1.198 0 001.198 1.196h1.945v1.184h-3.25v1.131h3.285c.661 0 1.196-.536 1.196-1.196V29.75c0-.661-.536-1.196-1.196-1.196H40.2v-1.278h2.832v-1.131zm9.358 4.724h-2.832v-1.157h2.832v-1.131h-2.832v-1.305h2.832v-1.131h-2.873a1.198 1.198 0 00-1.196 1.198v3.46c0 .661.536 1.196 1.196 1.196h2.873zm-19.399 0h-2.834v-1.157h2.834v-1.131h-2.834v-1.305h2.838v-1.131h-2.873a1.198 1.198 0 00-1.196 1.198v3.46c0 .661.536 1.196 1.196 1.196h2.873zm-17.108-4.724V32h1.231v-4.72h2.052V32h1.231v-4.656c0-.662-.537-1.198-1.198-1.198h-2.727zm20.57 2.436h2.194v-1.305h-2.194zm3.431-1.083v1.027a1.2 1.2 0 01-1.047 1.189l-.006.001 1.159 2.296h-1.391l-1.012-2.288h-1.135v2.288h-1.231v-5.865h3.47a1.2 1.2 0 011.198 1.198zm-18.037-1.353L20.794 32h1.941l1.89-5.855h-1.41l-1.463 4.87-1.385-4.876zM0 30.802v.002c0 .659.533 1.194 1.192 1.196H4.27v-1.131H1.231v-3.593h3.043v-1.131H1.196A1.198 1.198 0 000 27.343zm6.156 0c0 .662.537 1.198 1.198 1.198h2.557c.661 0 1.196-.536 1.196-1.196v-3.46c0-.662-.537-1.198-1.198-1.198H7.354a1.2 1.2 0 00-1.198 1.198zm1.231-3.526H9.87v3.593H7.387zM25.16 4.324l1.59 4.896h5.149l-4.164 3.025 1.59 4.898-4.166-3.027-4.166 3.027 1.592-4.898-4.166-3.025h5.149zm9.598 6.917c-.001 5.3-4.298 9.596-9.598 9.596s-9.598-4.297-9.598-9.598 4.297-9.598 9.598-9.598h.002a9.595 9.595 0 019.595 9.595v.004zM25.16 0h-.002C18.95 0 13.917 5.033 13.917 11.241s5.033 11.241 11.241 11.241c6.208 0 11.241-5.033 11.241-11.241v-.002C36.399 5.032 31.367 0 25.16 0z"/></svg><svg viewBox="0 0 205 32" id="img-gucci" xmlns="http://www.w3.org/2000/svg"><path d="M197.715 1.108h7.2a2.941 2.941 0 00-1.279 2.42v24.834a2.933 2.933 0 001.269 2.392l.01.006h-7.2a2.954 2.954 0 001.263-2.397V3.514c0-.994-.496-1.872-1.253-2.4l-.01-.006zM30.46 11.774c-1.18-2.537-2.481-5.04-4.658-6.856a12.9 12.9 0 00-8.299-3.14h-.008c-8.08 0-11.702 7.299-11.702 14.471 0 6.939 3.456 13.951 11.254 13.951l.106.001c3.275 0 6.2-1.504 8.12-3.858l.015-.019V20.73a3.83 3.83 0 00-1.649-3.392l-.013-.008h8.235a4.864 4.864 0 00-1.401 3.399v5.595c-3.777 3.517-8.479 5.677-13.696 5.677C7.532 32.001 0 25.228 0 15.791S7.432.001 16.532.001a17.617 17.617 0 0113.907 6.227l.021.025v5.538zM50.675 1.108h7.754a3.263 3.263 0 00-1.384 2.958l-.001-.012v18.138c0 4.984 5.837 7.41 10.113 7.41s9.681-2.459 9.681-7.311V4.054a3.966 3.966 0 00-1.109-2.959l.001.001h4.231a3.865 3.865 0 00-1.174 2.966v-.009V22.29c0 6.552-7.754 9.072-13.098 9.072-5.538 0-13.569-2.442-13.569-9.171V4.051a3.717 3.717 0 00-1.437-2.938l-.008-.006zm77.879 10.766c-1.041-2.625-2.26-4.918-4.397-6.818a12.26 12.26 0 00-8.185-3.323h-.011c-7.997 0-12.096 6.995-12.096 14.25s4.259 14.195 12.151 14.195c5.882 0 10.08-4.137 12.539-9.11v5.394a18.808 18.808 0 01-13.278 5.462l-.271-.002h.014c-9.553 0-16.709-6.181-16.709-16.061 0-9.548 6.879-15.862 16.249-15.862l.296-.002a20.075 20.075 0 0113.712 5.386l-.013-.012v6.48zm50.138 0c-1.041-2.625-2.26-4.918-4.397-6.818a12.276 12.276 0 00-8.185-3.323h-.012c-7.997 0-12.073 6.995-12.073 14.25s4.237 14.2 12.123 14.2c5.871 0 10.091-4.137 12.533-9.11v5.394a18.77 18.77 0 01-13.262 5.463l-.288-.002h.014c-9.52 0-16.72-6.181-16.72-16.039C148.425 6.313 155.32 0 164.696 0l.291-.002a20.09 20.09 0 0113.717 5.386l-.013-.012v6.48z"/></svg><svg viewBox="0 0 65 32" id="img-levis" xmlns="http://www.w3.org/2000/svg"><path d="M56.178 29.04c-.219-.125-.482-.198-.762-.198s-.542.073-.769.202l.008-.004c-.248.14-.449.34-.587.579l-.004.008a1.598 1.598 0 00-.198.777v.02-.001.021c0 .28.074.544.202.771l-.004-.008c.135.248.333.447.572.58l.007.004c.217.131.48.209.76.209h.011-.001.016c.276 0 .534-.078.753-.213l-.006.004a1.34 1.34 0 00.569-.576l.004-.008a1.56 1.56 0 00.205-.778v-.012a1.62 1.62 0 00-.209-.799l.004.008a1.449 1.449 0 00-.565-.583l-.007-.004zm.36 2.035a1.34 1.34 0 01-.483.486l-.006.003a1.2 1.2 0 01-.63.176h-.008a1.22 1.22 0 01-.639-.18l.005.003a1.309 1.309 0 01-.483-.483l-.003-.006a1.307 1.307 0 01-.162-.635v-.017.001c.002-.243.064-.471.173-.67l-.004.007c.113-.206.277-.372.476-.483l.006-.003a1.264 1.264 0 011.274.004l-.006-.003c.202.122.366.286.486.48l.004.006c.102.19.162.416.162.656v.024c0 .233-.06.452-.166.642l.003-.007zm-.871-.465a.483.483 0 00-.137-.089l-.003-.001a.546.546 0 00.36-.155.455.455 0 00.123-.312v-.018a.434.434 0 00-.077-.248l.001.002a.405.405 0 00-.202-.161l-.003-.001a1.471 1.471 0 00-.362-.044l-.059.001h.003-.573v1.693h.27v-.72h.158a.33.33 0 01.217.054l-.001-.001c.11.111.203.239.273.38l.004.009.148.267h.331l-.198-.328a2.488 2.488 0 00-.257-.337l.002.002zm-.342-.299h-.321v-.483h.313a.713.713 0 01.264.03l-.005-.001a.224.224 0 01.159.214v.02a.235.235 0 01-.083.18.633.633 0 01-.285.066c-.015 0-.03 0-.044-.002h.002zM22.839 10.036c-1.03 0-1.394.961-1.394 1.919h2.78c0-1.08-.36-1.919-1.386-1.919zM0 0l6.212 29.371.472-.245c6.608-3.472 13.206-3.263 17.574-2.478 3.005.531 5.691 1.419 8.187 2.637l-.182-.08.173.097.176-.083c7.8-3.468 14.239-3.27 18.269-2.492 4.365.846 6.925 2.521 6.95 2.55l.49.328.126-.583L64.821 0zm17.131 17.909H7.984V8.283h3.644v7.166h5.503zm5.884.335c-3.731 0-5.708-1.93-5.708-5.15s2.06-5.142 5.503-5.142c3.673 0 5.503 2.355 5.503 5.142v.022c0 .201-.017.398-.05.589l.003-.021h-6.954c0 1.372.767 2.211 1.981 2.211 1.037 0 1.833-.295 2.002-1.149h3.032c-.36 2.204-1.916 3.497-5.312 3.497zm12.064-.317h-2.996l-4.779-9.723h4.195l2.564 5.621h.065l2.568-5.621h3.011zm8.819-.022h-3.644V8.182h3.644zm3.364-8.949l-1.264 1.523h-.519l.569-1.66h-1.152V6.601h2.366v2.355zm4.75 9.169c-3.342 0-4.581-1.469-4.581-3.241v-.054h3.05c0 .839.666 1.268 1.599 1.268.825 0 1.25-.274 1.25-.799 0-1.386-5.816-.058-5.816-3.961 0-2.099 1.959-3.327 5.016-3.327 2.723 0 4.375 1.35 4.375 2.964h-2.794c0-.468-.58-.933-1.574-.933s-1.401.36-1.401.673c0 1.527 6.082.029 6.082 4.019 0 1.923-1.44 3.418-5.207 3.418z"/></svg><svg viewBox="0 0 192 32" id="img-mango" xmlns="http://www.w3.org/2000/svg"><path d="M192.411 16.126c0-9.08-8.244-16.126-18.365-16.126-9.803 0-18.415 6.721-18.415 15.632 0 8.41 6.764 15.144 15.874 16.216v-5.089c-5.971-.995-10.463-5.434-10.463-10.788 0-6.074 5.789-11.007 12.938-11.007s12.938 4.933 12.938 11.007c0 5.308-4.432 9.737-10.324 10.765v5.112c8.738-1.078 15.818-7.564 15.818-15.721zm-58.357 10.948c-5.623 0-10.407-3.042-12.192-7.298h-5.752c1.904 7.341 9.382 12.238 18.246 12.238l.243.001a27.74 27.74 0 006.35-.732l-.188.037c4.449-1.098 9.289-3.981 9.289-8.549v-8.104h-16.056v5.096h10.948v2.322c0 2.558-3.815 4.037-6.154 4.555-1.251.272-2.69.432-4.165.438h-.566zm10.898-17.742c-2.438-2.531-6.2-4.15-10.42-4.15-6.731 0-12.291 4.134-13.18 9.498h-5.64c.73-8.34 9.246-14.474 18.886-14.474 5.729 0 10.878 2.133 14.355 5.567l-4.007 3.546zM84.445.873h-5.208V31.32h5.122V8.569l20.989 22.751h3.815v-3.699L84.445.873zm24.719 0h-5.122v14.786l5.122 5.142V.873zM64.179 21.895l4.724 9.425h6.157L59.614.873h-5.54l7.736 16.146H51.526l2.681-5.261-2.797-5.719-13.031 25.282h5.759l4.867-9.425h15.174zM5.165.876H0V31.32h5.119V10.39L16.73 28.968l2.976-4.734L5.166.876zM19.49 15.164l2.949 4.674 5.928-9.448v20.93h5.106V.876h-5.212L19.49 15.164z"/></svg><svg viewBox="0 0 89 32" id="img-nike" xmlns="http://www.w3.org/2000/svg"><path d="M10.547 31.374c-2.596-.103-4.719-.813-6.38-2.132a12.76 12.76 0 01-1.325-1.326c-.673-.847-1.131-1.671-1.436-2.585-.94-2.814-.456-6.507 1.383-10.56 1.575-3.47 4.004-6.911 8.244-11.677.624-.701 2.484-2.752 2.496-2.752.004 0-.097.176-.224.389-1.102 1.846-2.045 4.021-2.559 5.904-.825 3.021-.726 5.613.292 7.624.702 1.385 1.905 2.584 3.258 3.248 2.368 1.16 5.836 1.256 10.071.281.292-.068 14.739-3.903 32.105-8.523S88.049.867 88.052.87c.005.004-40.347 17.271-61.294 26.228-3.317 1.418-4.204 1.776-5.764 2.324-3.987 1.4-7.558 2.068-10.444 1.953z"/></svg><svg viewBox="0 0 64 32" id="img-puma" xmlns="http://www.w3.org/2000/svg"><path d="M34.613.108c-.21.033-.412.805-.83 1.209-.299.277-.667.277-.866.634-.075.133-.05.363-.136.584-.166.44-.747.479-.747.958 0 .52.484.617.908.985.332.296.363.501.764.645.34.116.85-.277 1.306-.127.376.111.736.191.83.576s0 .908-.459.844a4.922 4.922 0 00-1.652-.154l.016-.001c-.988.113-2.114.435-2.214 1.536-.061.614.7 1.34 1.434 1.193.509-.1.277-.7.554-.991.363-.374 2.416 1.301 4.326 1.301a2.484 2.484 0 001.994-.828l.002-.002c.058-.047.125-.149.21-.155a.732.732 0 01.279.121l-.002-.002c1.514 1.254 2.676 3.723 8.331 3.745a3.803 3.803 0 012.44 1.061l-.001-.001c.661.609 1.046 1.558 1.42 2.521.567 1.445 1.58 2.851 3.116 4.412a70.411 70.411 0 001.453 1.143.6.6 0 01.074.357v-.003c-.036.938-.172 3.664 1.86 3.786.495.028.365-.324.365-.554 0-.476-.086-.947.163-1.434.343-.667-.725-.977-.695-2.422.022-1.077-.883-.894-1.342-1.716-.277-.476-.501-.728-.482-1.309.102-3.274-.697-5.425-1.107-5.956-.313-.399-.57-.554-.277-.739 1.697-1.107 2.081-2.164 2.081-2.164.902-2.12 1.713-4.055 2.831-4.907a7.985 7.985 0 011.119-.759l.041-.021c1.043-.493 1.594-.792 1.896-1.085.479-.468.858-1.442.399-2.034-.57-.728-1.561-.149-1.995.108-3.119 1.852-3.579 5.117-4.658 6.991-.864 1.497-2.264 2.596-3.515 2.687a6.228 6.228 0 01-2.997-.569l.038.016a15.024 15.024 0 01-4.122-2.726l.009.008c-.659-.506-5.771-5.535-9.914-5.732 0 0-.515-1.03-.642-1.046-.304-.039-.614.614-.83.692s-.554-.709-.772-.675zM16.379 30.063a.736.736 0 01-.722-.725v-12.92H11.4v14.246c0 .697.563 1.262 1.259 1.265h7.443a1.262 1.262 0 001.257-1.262V16.418h-4.254v12.92a.736.736 0 01-.722.722h-.001zm14.257-13.645H24.19c-.764 0-1.384.62-1.384 1.384v14.115h4.262V18.975a.725.725 0 011.448-.002v12.966h4.246V18.964a.712.712 0 01.711-.698h.018-.001.003a.72.72 0 01.72.711V31.93h4.259V17.815c0-.764-.62-1.384-1.384-1.384zM8.558 28.031H4.257v3.897H0V16.429h8.58c.764 0 1.384.62 1.384 1.384v8.835c0 .764-.62 1.384-1.384 1.384zm-2.857-9.028v-.006c0-.4-.321-.724-.719-.731h-.726v7.844h.728a.72.72 0 00.72-.72v-6.375zm49.29 11.087a1.898 1.898 0 01-3.798-.012c0-1.04.836-1.884 1.872-1.898h.023a1.9 1.9 0 011.901 1.901v.009zm-1.918-1.63a1.597 1.597 0 10.029 0h-.001z"/><path d="M53.992 31.195h-.507l-.656-.869v.869h-.412v-2.198h.446c.592 0 .908.221.908.65v.008a.64.64 0 01-.441.608l-.005.001h-.03l.709.919zm-1.09-1.226c.296 0 .454-.105.454-.316s-.152-.277-.44-.277h-.086v.598zm-7.291 1.959v-3.894h-1.447v3.894h-4.251V17.813c0-.764.62-1.384 1.384-1.384h7.196c.764 0 1.384.62 1.384 1.384v14.115zm0-5.812V18.97a.713.713 0 00-.714-.703h-.012.001a.723.723 0 00-.722.708v7.139z"/></svg><svg viewBox="0 0 235 32" id="img-zara" xmlns="http://www.w3.org/2000/svg"><path d="M38.047 32H0v-1.174L28.491 1.957H4.873l-.581 7.208H2.525L3.32.783h35.699v.972L9.985 30.637h26.307l.783-8.975h1.944L38.047 32zm176.549-9.758H198.83l-5.049 8.584h9.177V32h-17.976v-1.174h6.892L209.951.189h.972l17.37 30.637h6.64V32h-23.618v-1.174h8.003l-4.721-8.584zm-15.022-1.363h14.441l-6.993-12.295h-.189l-7.22 12.295zM82.922 22.242H67.118l-5.049 8.394h9.177v1.174H53.27v-1.174h6.829L78.264-.001h.985l17.332 30.637h6.64v1.174H79.805v-1.174h8.192l-5.049-8.394zm-15.413-1.363H81.95L74.931 8.584h-.202l-7.221 12.295zm60.693 9.758V1.957h-7.814V.783h37.075c5.264 0 6.64 4.267 6.64 7.019 0 3.901-.985 7.031-6.64 8.205-.688.001-1.36.07-2.01.2l.066-.011 8.382 14.63h6.64V32h-15.022l-8.975-15.804h-9.366v14.63h7.801V32h-24.59v-1.174h7.814zm8.836-28.68v12.876h8.836a26.177 26.177 0 004.64-.415l-.158.024a5.73 5.73 0 003.503-1.949l.007-.008a6.62 6.62 0 001.402-4.09c0-.209-.01-.416-.028-.62l.002.026a5.483 5.483 0 00-1.381-3.907l.005.006a5.316 5.316 0 00-3.286-1.564l-.021-.002a18.439 18.439 0 00-3.928-.412c-.394 0-.786.012-1.175.036l.053-.003z"/></svg><svg viewBox="0 0 80 32" id="logo" xmlns="http://www.w3.org/2000/svg"><defs><linearGradient id="ka" x1="-239.24" y1="407.61" x2="-238.24" y2="407.61" gradientTransform="matrix(71.73 0 0 -28.02 17213.83 11448.41)" gradientUnits="userSpaceOnUse"><stop offset="0" stop-color="#00e0d0"/><stop offset="1" stop-color="#4aa3cc"/></linearGradient><linearGradient id="kb" x1="-237.82" y1="413.85" x2="-236.8" y2="413.85" gradientTransform="matrix(44 0 0 -50 10464.2 20717.25)" xlink:href="#ka"/></defs><path d="M79.276 21.779v-6.606a3.783 3.783 0 00-.651-2.496l.008.013a2.567 2.567 0 00-2.12-.784l.011-.001-.065-.001a3.524 3.524 0 00-2.867 1.47l-.007.01a3.056 3.056 0 00-.68 1.6l-.001.014v6.78h-.508v-6.844a3.386 3.386 0 00-.65-2.293l.007.009a2.694 2.694 0 00-2.127-.745l.011-.001h-.033a3.213 3.213 0 00-2.699 1.467l-.008.012a4.865 4.865 0 00-.831 1.898l-.005.031v6.432h-.521V11.575h.521v2.412a4.28 4.28 0 011.467-1.921l.012-.008a3.88 3.88 0 012.198-.676c.75 0 1.45.211 2.045.577l-.017-.01c.573.44.966 1.089 1.066 1.832l.002.014a3.754 3.754 0 011.452-1.753l.015-.009a4.138 4.138 0 012.229-.644h.058-.003a3.065 3.065 0 012.456.931l.001.001a4.183 4.183 0 01.719 2.822l.001-.018v6.651zM61.787 19.94a4.154 4.154 0 01-1.624 1.507l-.023.011a5.077 5.077 0 01-2.284.535l-.088-.001h.004a3.287 3.287 0 01-2.275-.769l.005.004a2.566 2.566 0 01-.829-2.032v-.017c0-.947.512-1.775 1.274-2.222l.012-.007a6.027 6.027 0 013.322-.868h-.009 2.515v-1.479a2.484 2.484 0 00-.802-1.986l-.002-.002a3.337 3.337 0 00-2.314-.706l.011-.001c-.04-.002-.087-.002-.134-.002a3.7 3.7 0 00-2.204.724l.01-.007a2.157 2.157 0 00-.933 1.775v.001h-.508a2.62 2.62 0 011.086-2.111l.008-.005a4.17 4.17 0 012.551-.864l.131.002h-.006a3.847 3.847 0 012.627.81l-.008-.006a2.921 2.921 0 01.996 2.328v-.006 4.869a6.627 6.627 0 00.276 2.33l-.012-.047v.084h-.579a6.711 6.711 0 01-.193-1.85v.011zm0-3.319h-2.354a5.484 5.484 0 00-3.366.881l.021-.013a2.123 2.123 0 00-.939 1.762v.023c0 .627.287 1.187.736 1.557l.004.003a2.77 2.77 0 001.889.643h-.005l.117.002c.866 0 1.676-.24 2.367-.656l-.021.012a4 4 0 001.54-1.776l.01-.025zM51.631 8.915h-.013a.496.496 0 01-.353-.148.533.533 0 010-.74.52.52 0 11.37.888h-.004zm-.302 2.663h.515v11.417a3.01 3.01 0 01-.711 2.159l.004-.004a2.602 2.602 0 01-1.988.745h.007-.014c-.324 0-.633-.061-.916-.173l.017.006v-.489c.265.103.572.164.893.167h.001a2.044 2.044 0 001.613-.643l.001-.001a2.554 2.554 0 00.56-1.776v.008zm-3.918 8.362a4.154 4.154 0 01-1.624 1.507l-.023.011a5.077 5.077 0 01-2.284.535l-.088-.001h.004a3.31 3.31 0 01-2.282-.77l.005.004a2.566 2.566 0 01-.863-1.923l.001-.082v-.019c0-.947.512-1.775 1.274-2.222l.012-.007a6.063 6.063 0 013.191-.896l.168.002h-.008 2.515V14.6a2.506 2.506 0 00-.802-1.986l-.002-.002a3.349 3.349 0 00-2.313-.707l.011-.001a3.686 3.686 0 00-2.338.721l.01-.007a2.158 2.158 0 00-.933 1.775v.001h-.508c.002-.87.43-1.639 1.086-2.111l.008-.005a4.17 4.17 0 012.551-.864l.131.002h-.006a3.875 3.875 0 012.659.811l-.009-.007a2.967 2.967 0 01.997 2.327v-.005 4.869a6.627 6.627 0 00.276 2.33l-.012-.047v.084h-.617a7.056 7.056 0 01-.186-1.85v.01zm0-3.319h-2.354a5.469 5.469 0 00-3.365.881l.021-.013a2.133 2.133 0 00-.946 1.762v.015c0 .631.289 1.194.743 1.565l.004.003a2.759 2.759 0 001.778.645l.112-.002h-.005l.114.001c.867 0 1.678-.24 2.371-.656l-.021.012a4.032 4.032 0 001.54-1.775l.01-.026zM36.02 21.348a3.184 3.184 0 01-.488-1.94l-.001.01v-7.326h-1.885v-.515h1.885V8.83h.489v2.747h2.322v.508H36.02v7.249a2.927 2.927 0 00.361 1.623l-.008-.015a1.336 1.336 0 001.189.514h-.005a7.165 7.165 0 001.076-.089l-.041.005.084.482a3.54 3.54 0 01-1.069.109h.008a1.924 1.924 0 01-1.594-.616l-.001-.001z" fill="url(#ka)"/><path d="M14.292 0h.399c5.049 7.667 9.545 15.656 14.35 23.465v.881c-2.296.148-4.631-.148-6.902.212-2.573 2.335-4.657 5.146-7.281 7.442h-.759c-2.521-2.451-4.818-5.056-7.23-7.558-2.29 0-4.58 0-6.87-.064v-1.036C4.849 15.611 9.326 7.66 14.291 0zM1.209 23.548c1.743-.064 3.493-.103 5.236 0 2.354-6.4 4.149-12.999 6.432-19.438-3.924 6.445-7.873 12.909-11.668 19.438zm6.368.155c2.071 2.399 4.393 4.599 6.574 6.94-.38-8.819-.077-17.663-.135-26.488-2.38 6.432-4.187 13.07-6.432 19.547zm7.416 6.824c2.155-2.277 4.406-4.503 6.49-6.812-2.187-6.516-4.2-13.102-6.368-19.631-.071 8.812.187 17.637-.122 26.443zm1.158-26.475c2.283 6.432 4.078 13.057 6.432 19.477 1.75-.064 3.506 0 5.255 0-3.776-6.535-7.77-12.993-11.687-19.477z" fill="url(#kb)"/></svg><svg viewBox="0 0 33 32" id="logo-lg" xmlns="http://www.w3.org/2000/svg"><path fill="#6ca1c9" d="M16.338-.115v32.23l8.172-6.56L16.338-.116z"/><path fill="#7fc2be" d="M16.338-.115l8.172 25.671h8.169z"/><path fill="#30275d" d="M16.338-.115v32.23l-8.169-6.56L16.338-.116z"/><path fill="#171630" d="M16.338-.115L8.169 25.556H0z"/></svg><svg viewBox="0 0 28 32" id="logo-sm" xmlns="http://www.w3.org/2000/svg"><defs><linearGradient id="ma" x1="0%" y1="0%" x2="100%" y2="0%"><stop offset="0%" stop-color="#00e0d0"/><stop offset="100%" stop-color="#4aa3cc"/></linearGradient></defs><path fill="url(#ma)" d="M13.862 0h.384C19.142 7.667 23.5 15.654 28.16 23.462v.883c-2.227.147-4.486-.147-6.688.211-2.496 2.336-4.518 5.146-7.066 7.443h-.736c-2.419-2.451-4.672-5.056-7.008-7.578-2.221.006-4.442-.019-6.662-.064v-1.018C4.704 15.608 9.043 7.659 13.862-.002zM1.171 23.546c1.69-.064 3.386-.102 5.082-.026 2.278-6.4 4.019-12.998 6.227-19.437-3.795 6.47-7.629 12.934-11.309 19.462zm6.176.16c2.035 2.394 4.262 4.608 6.368 6.938-.365-8.819-.077-17.664-.128-26.49-2.31 6.426-4.064 13.069-6.24 19.552zm7.194 6.822c2.086-2.278 4.269-4.474 6.291-6.81-2.125-6.522-4.07-13.107-6.176-19.635-.064 8.813.186 17.638-.115 26.445zm1.12-26.477c2.214 6.451 3.955 13.056 6.234 19.475 1.696-.064 3.398-.026 5.094.026-3.654-6.56-7.526-13.018-11.328-19.501z"/></svg><svg viewBox="0 0 32 32" id="map-marker" xmlns="http://www.w3.org/2000/svg"><path fill="currentColor" d="M16 0C9.925 0 5 4.925 5 11s11 21 11 21 11-14.925 11-21S22.075 0 16 0zM7 11c0-4.963 4.037-9 9-9s9 4.037 9 9c0 3.457-5.002 11.803-9 17.559C12.002 22.802 7 14.457 7 11zm9-5c-2.762 0-5 2.238-5 5s2.238 5 5 5 5-2.238 5-5-2.238-5-5-5zm0 8c-1.654 0-3-1.346-3-3s1.346-3 3-3 3 1.346 3 3-1.346 3-3 3z"/></svg><svg overflow="hidden" viewBox="0 0 32 32" id="paper" xmlns="http://www.w3.org/2000/svg"><path d="M6 15.6l7.287 3.206L16.862 26l9.137-20-20 9.6zm8.256 2.931l9.731-10.387L16.824 23.7l-2.569-5.169zm9.607-10.512L13.55 17.838l-5.175-2.275 15.488-7.544z"/></svg><svg viewBox="0 0 32 32" id="phone" xmlns="http://www.w3.org/2000/svg"><path fill="currentColor" d="M2.644 8c-.372-.744-.578-2.291.128-2.956l1.806-1.8c.497-.497 1.303-.666 1.803 0l2.706 3.6c.412.609.497 1.303 0 1.8l-2.275 2.272c4.644 7.534 12.997 13.009 13.519 13.375l2.225-2.216c.497-.497 1.194-.413 1.803 0l3.609 2.7c.541.453.372 1.175 0 1.797l-1.803 1.8c-.5.497-2.313.472-2.962.128 0 0-8.459-5.306-12.05-9.188-3.116-3.234-6.838-8.131-8.509-11.313zM1.225 3.759c-1.566 1.563-.813 3.425 0 5.653 0 0 3.897 6.625 8.938 11.65 5.359 5.344 11.619 8.85 11.619 8.85 2.069 1.063 4.103 1.563 5.669 0l2.834-2.825c.784-.781.95-2.172 0-2.828l-5.669-4.244c-.962-.65-2.053-.781-2.834 0l-1.678 1.672c-1.966-1.466-4.153-3.247-6.119-5.206-1.741-1.734-3.284-3.613-4.569-5.338l1.734-1.731c.781-.781.65-1.872 0-2.828L6.897.931a2.01 2.01 0 00-2.837 0L1.226 3.759z"/></svg><svg fill="currentColor" viewBox="0 0 32 32" id="play-icon" xmlns="http://www.w3.org/2000/svg"><path d="M15.357 0h1.197c4.003.15 7.933 1.834 10.755 4.685 2.819 2.784 4.496 6.646 4.691 10.598v1.37c-.176 4.125-1.99 8.15-5.008 10.973-2.771 2.65-6.522 4.208-10.346 4.374h-1.2c-3.93-.141-7.789-1.77-10.595-4.528C1.936 24.672.192 20.736 0 16.704v-1.293c.157-4.214 2.042-8.333 5.158-11.178C7.913 1.67 11.603.172 15.356-.001zM13.29 1.206a15 15 0 00-8.97 5.35C1.805 9.615.598 13.705 1.053 17.641c.474 4.595 3.235 8.867 7.19 11.238 3.254 1.984 7.28 2.637 10.998 1.805 3.834-.829 7.28-3.245 9.395-6.544 2.214-3.392 2.95-7.702 1.99-11.638-.896-3.808-3.363-7.203-6.685-9.264C20.808 1.26 16.927.54 13.288 1.206z"/><path d="M11.619 8.707c.586-.208 1.088.24 1.558.506 3.149 1.997 6.349 3.917 9.478 5.936.653.346.432 1.299-.198 1.533a2206.307 2206.307 0 01-9.875 6.154c-.47.374-1.267.202-1.35-.454-.048-4.16.006-8.326-.026-12.49-.029-.432.022-.918.413-1.184zm.682 12.954c3.162-2 6.403-3.869 9.59-5.827-3.213-1.917-6.426-3.83-9.6-5.802-.003 3.875-.026 7.754.01 11.629z"/></svg></svg>